<svg xmlns="http://www.w3.org/2000/svg" viewBox="0 0 1600 1100">
  <defs>
    <linearGradient id="g" x1="0" x2="0" y1="0" y2="1">
      <stop offset="0" stop-color="#76e4c1"/>
      <stop offset="1" stop-color="#2fb18f"/>
    </linearGradient>
    <filter id="shadow" x="-20%" y="-20%" width="140%" height="140%">
      <feDropShadow dx="0" dy="3" stdDeviation="8" flood-opacity=".18"/>
    </filter>
    <style>
      .sea{fill:#eaf6f5}
      .island{fill:url(#g);stroke:#0a6a59;stroke-width:3;filter:url(#shadow)}
    </style>
  </defs>

  <!-- Mer -->
  <rect class="sea" x="0" y="0" width="1600" height="1100" rx="26" ry="26"/>

  <!-- Basse-Terre (silhouette douce & réaliste) -->
  <path class="island" d="
    M 470 820
    C 400 780, 370 705, 395 630
    C 420 560, 490 505, 585 490
    C 665 477, 740 505, 795 560
    C 845 615, 860 685, 830 745
    C 800 805, 730 855, 630 870
    C 565 880, 515 860, 470 820 Z"/>

  <!-- Grande-Terre -->
  <path class="island" d="
    M 905 715
    C 860 660, 865 600, 915 550
    C 980 490, 1085 465, 1200 478
    C 1290 488, 1368 535, 1410 595
    C 1455 660, 1430 725, 1360 768
    C 1280 815, 1185 820, 1105 795
    C 1035 772, 965 755, 905 715 Z"/>

  <!-- La Désirade -->
  <path class="island" d="
    M 1490 540
    C 1525 534, 1560 536, 1594 552
    C 1560 570, 1523 575, 1492 564 Z"/>

  <!-- Marie-Galante -->
  <path class="island" d="
    M 1220 970
    C 1168 1008, 1086 1006, 1040 955
    C 995 905, 1014 845, 1083 820
    C 1152 795, 1228 827, 1246 885
    C 1259 925, 1249 953, 1220 970 Z"/>

  <!-- Les Saintes (2 îlots) -->
  <path class="island" d="
    M 790 985
    C 770 965, 773 935, 801 923
    C 835 909, 870 933, 866 957
    C 862 982, 818 1001, 790 985 Z"/>
  <path class="island" d="
    M 872 1018
    C 862 1008, 870 993, 892 988
    C 915 983, 937 997, 932 1012
    C 927 1027, 890 1030, 872 1018 Z"/>

  <!-- Petite-Terre -->
  <path class="island" d="
    M 1330 602
    C 1320 595, 1322 585, 1338 583
    C 1351 582, 1364 592, 1358 599
    C 1351 607, 1338 608, 1330 602 Z"/>
</svg>
